SplineFontDB: 3.0
FontName: Elypian-Display
FullName: Elypian Display
FamilyName: Elypian
Weight: Regular
Copyright: Copyright (c) 2019-2019, Elypia CIC (https://elypia.org/),\nCopyright (c) 2019-2019, Arsene Laeuffer (SevDev),\nwith Reserved Font Name Elypian.\n\nThis Font Software is licensed under the SIL Open Font License, Version 1.1.\nThis license is copied below, and is also available with a FAQ at:\nhttp://scripts.sil.org/OFL
UComments: "2019-10-26: Created with FontForge (http://fontforge.org)"
Version: 1.0.1
ItalicAngle: 0
UnderlinePosition: -100
UnderlineWidth: 50
Ascent: 750
Descent: 250
InvalidEm: 0
LayerCount: 2
Layer: 0 0 "Back" 1
Layer: 1 0 "Fore" 0
XUID: [1021 353 -130540722 15807660]
FSType: 0
OS2Version: 0
OS2_WeightWidthSlopeOnly: 0
OS2_UseTypoMetrics: 1
CreationTime: 1572048009
ModificationTime: 1572700923
PfmFamily: 17
TTFWeight: 400
TTFWidth: 5
LineGap: 90
VLineGap: 0
OS2TypoAscent: 0
OS2TypoAOffset: 1
OS2TypoDescent: 0
OS2TypoDOffset: 1
OS2TypoLinegap: 90
OS2WinAscent: 0
OS2WinAOffset: 1
OS2WinDescent: 0
OS2WinDOffset: 1
HheadAscent: 0
HheadAOffset: 1
HheadDescent: 0
HheadDOffset: 1
OS2Vendor: 'PfEd'
MarkAttachClasses: 1
DEI: 91125

StartChar: E
Encoding: 69 69 0
Width: 577
VWidth: 0
Flags: W
HStem: 0 83.333<34 450.667> 333.333 83.334<34 284> 666.667 83.333<117.333 450.667>
VStem: 34 83.333<583.333 666.667>
CounterMasks: 1 e0
LayerCount: 2
Fore
SplineSet
34 666.666992188 m 1
 117.333007812 750 l 1
 534 750 l 1
 450.666992188 666.666992188 l 1
 117.333007812 666.666992188 l 1
 117.333007812 583.333007812 l 1
 34 500 l 1
 34 666.666992188 l 1
34 0 m 1
 34 83.3330078125 l 1
 450.666992188 83.3330078125 l 1
 534 0 l 1
 34 0 l 1
34 416.666992188 m 1
 367.333007812 416.666992188 l 1
 284 333.333007812 l 1
 34 333.333007812 l 1
 34 416.666992188 l 1
EndSplineSet
Validated: 1
EndChar

StartChar: l
Encoding: 108 108 1
Width: 235
VWidth: 0
Flags: HW
HStem: 0 21G<152.185 216.185> 676 20G<152.185 171.579>
VStem: 152.185 64<0 630>
LayerCount: 2
Fore
SplineSet
108.9140625 750 m 1
 192.247070312 666.666992188 l 1
 192.247070312 0 l 1
 108.9140625 0 l 1
 108.9140625 750 l 1
EndSplineSet
EndChar

StartChar: y
Encoding: 121 121 2
Width: 445
VWidth: 0
Flags: HW
HStem: -128 21G<367.46 387.46> 0 64<239.46 303.46> 379 20G<175.46 195.46 411.46 431.46>
VStem: 175.46 64<64 335> 367.46 64<-64 335>
LayerCount: 2
Fore
SplineSet
88.1416015625 416.666992188 m 1
 171.474609375 333.333007812 l 1
 171.474609375 83.3330078125 l 1
 254.80859375 83.3330078125 l 1
 254.80859375 0 l 1
 171.474609375 0 l 1
 88.1416015625 83.3330078125 l 1
 88.1416015625 416.666992188 l 1
338.141601562 333.333007812 m 1
 421.474609375 416.666992188 l 1
 421.474609375 -166.666992188 l 1
 338.141601562 -250 l 1
 338.141601562 333.333007812 l 1
EndSplineSet
EndChar

StartChar: p
Encoding: 112 112 3
Width: 482
VWidth: 0
Flags: HW
HStem: -128 21G<213.707 233.707> 0 64<297.707 361.707> 379 20G<169.707 189.707 341.707 425.707>
VStem: 169.707 64<-64 335> 361.707 64<64 335>
LayerCount: 2
Fore
SplineSet
109.577148438 416.666992188 m 1
 192.91015625 333.333007812 l 1
 192.91015625 -250 l 1
 109.577148438 -166.666992188 l 1
 109.577148438 416.666992188 l 1
276.244140625 333.333007812 m 1
 359.577148438 416.666992188 l 1
 442.91015625 333.333007812 l 1
 442.91015625 83.3330078125 l 1
 359.577148438 0 l 1
 276.244140625 0 l 1
 276.244140625 83.3330078125 l 1
 359.577148438 83.3330078125 l 1
 359.577148438 333.333007812 l 1
 276.244140625 333.333007812 l 1
EndSplineSet
EndChar

StartChar: i
Encoding: 105 105 4
Width: 210
VWidth: 0
Flags: HW
HStem: 0 21G<159.462 223.462> 379 20G<179.462 224.462>
VStem: 159.462 64<0 271>
LayerCount: 2
Fore
SplineSet
101.85546875 250 m 1
 185.188476562 250 l 1
 185.188476562 0 l 1
 101.85546875 0 l 1
 101.85546875 250 l 1
101.85546875 416.666992188 m 1
 185.188476562 416.666992188 l 1
 185.188476562 333.333007812 l 1
 101.85546875 416.666992188 l 1
EndSplineSet
EndChar

StartChar: a
Encoding: 97 97 5
Width: 570
VWidth: 0
Flags: HW
HStem: 0 21G<217.148 301.148 453.148 493.148> 335 64<281.148 345.148>
VStem: 217.148 64<64 335> 409.148 64<64 335>
LayerCount: 2
Fore
SplineSet
127.337890625 83.3330078125 m 1
 127.337890625 333.333007812 l 1
 210.670898438 416.666992188 l 1
 294.004882812 416.666992188 l 1
 294.004882812 333.333007812 l 1
 210.670898438 333.333007812 l 1
 210.670898438 83.3330078125 l 1
 294.004882812 83.3330078125 l 1
 210.670898438 0 l 1
 127.337890625 83.3330078125 l 1
377.337890625 416.666992188 m 1
 460.670898438 333.333007812 l 1
 460.670898438 83.3330078125 l 1
 544.004882812 83.3330078125 l 1
 460.670898438 0 l 1
 377.337890625 83.3330078125 l 1
 377.337890625 416.666992188 l 1
EndSplineSet
EndChar

StartChar: j
Encoding: 106 106 6
Width: 365
VWidth: 0
Flags: HW
LayerCount: 2
Fore
SplineSet
42 -250 m 1
 42 -83.3330078125 l 1
 125.333007812 -166.666992188 l 1
 208.666992188 -166.666992188 l 1
 208.666992188 166.666992188 l 1
 125.333007812 250 l 1
 292 250 l 1
 292 -250 l 1
 42 -250 l 1
208.666992188 416.666992188 m 1
 292 416.666992188 l 1
 208.666992188 333.333007812 l 1
 208.666992188 416.666992188 l 1
EndSplineSet
EndChar

StartChar: o
Encoding: 111 111 7
Width: 449
VWidth: 0
Flags: HW
LayerCount: 2
Fore
SplineSet
132.087890625 0 m 1
 48.7548828125 83.3330078125 l 1
 48.7548828125 333.333007812 l 1
 132.087890625 416.666992188 l 1
 132.087890625 0 l 1
215.421875 0 m 1
 215.421875 83.3330078125 l 1
 298.754882812 83.3330078125 l 1
 298.754882812 333.333007812 l 1
 215.421875 333.333007812 l 1
 215.421875 416.666992188 l 1
 298.754882812 416.666992188 l 1
 382.087890625 333.333007812 l 1
 382.087890625 83.3330078125 l 1
 298.754882812 0 l 1
 215.421875 0 l 1
EndSplineSet
EndChar

StartChar: f
Encoding: 102 102 8
Width: 504
VWidth: 0
Flags: HW
LayerCount: 2
Fore
SplineSet
88 -250 m 1
 88 333.333007812 l 1
 171.333007812 416.666992188 l 1
 171.333007812 -166.666992188 l 1
 88 -250 l 1
254.666992188 416.666992188 m 1
 338 416.666992188 l 1
 254.666992188 333.333007812 l 1
 254.666992188 416.666992188 l 1
88 416.666992188 m 1
 88 583.333007812 l 1
 171.333007812 666.666992188 l 1
 171.333007812 500 l 1
 88 416.666992188 l 1
254.666992188 666.666992188 m 1
 421.333007812 666.666992188 l 1
 338 583.333007812 l 1
 254.666992188 583.333007812 l 1
 254.666992188 666.666992188 l 1
EndSplineSet
EndChar

StartChar: F
Encoding: 70 70 9
Width: 634
VWidth: 0
Flags: HW
LayerCount: 2
Fore
SplineSet
56 500 m 1
 56 666.666992188 l 1
 139.333007812 750 l 1
 556 750 l 1
 472.666992188 666.666992188 l 1
 139.333007812 666.666992188 l 1
 139.333007812 583.333007812 l 1
 56 500 l 1
56 0 m 1
 56 333.333007812 l 1
 139.333007812 416.666992188 l 1
 389.333007812 416.666992188 l 1
 306 333.333007812 l 1
 139.333007812 333.333007812 l 1
 139.333007812 0 l 1
 56 0 l 1
EndSplineSet
EndChar

StartChar: b
Encoding: 98 98 10
Width: 1090
VWidth: 0
Flags: H
LayerCount: 2
Fore
SplineSet
92.71484375 0 m 1
 92.71484375 666.666992188 l 1
 176.047851562 583.333007812 l 1
 176.047851562 0 l 1
 92.71484375 0 l 1
259.381835938 0 m 1
 259.381835938 83.3330078125 l 1
 342.71484375 83.3330078125 l 1
 342.71484375 333.333007812 l 1
 259.381835938 333.333007812 l 1
 342.71484375 416.666992188 l 1
 426.047851562 333.333007812 l 1
 426.047851562 83.3330078125 l 1
 342.71484375 0 l 1
 259.381835938 0 l 1
EndSplineSet
EndChar

StartChar: c
Encoding: 99 99 11
Width: 1000
VWidth: 0
Flags: H
LayerCount: 2
Fore
SplineSet
83.3330078125 0 m 1
 0 83.3330078125 l 1
 0 333.333007812 l 1
 83.3330078125 416.666992188 l 1
 333.333007812 416.666992188 l 1
 250 333.333007812 l 1
 83.3330078125 333.333007812 l 1
 83.3330078125 83.3330078125 l 1
 250 83.3330078125 l 1
 333.333007812 0 l 1
 83.3330078125 0 l 1
EndSplineSet
EndChar

StartChar: d
Encoding: 100 100 12
Width: 676
VWidth: 0
Flags: HW
LayerCount: 2
Fore
SplineSet
514.375976562 0 m 1
 514.375976562 571.428710938 l 1
 597.708984375 666.666992188 l 1
 597.708984375 0 l 1
 514.375976562 0 l 1
347.708984375 0 m 1
 264.375976562 83.3330078125 l 1
 264.375976562 416.666992188 l 1
 431.04296875 416.666992188 l 1
 431.04296875 333.333007812 l 1
 347.708984375 333.333007812 l 1
 347.708984375 83.3330078125 l 1
 431.04296875 83.3330078125 l 1
 347.708984375 0 l 1
EndSplineSet
EndChar

StartChar: e
Encoding: 101 101 13
Width: 1038
VWidth: 0
Flags: H
LayerCount: 2
Fore
SplineSet
129.689453125 0 m 1
 46.3564453125 83.3330078125 l 1
 46.3564453125 333.333007812 l 1
 129.689453125 416.666992188 l 1
 129.689453125 0 l 1
213.0234375 416.666992188 m 1
 296.356445312 416.666992188 l 1
 379.689453125 333.333007812 l 1
 379.689453125 250 l 1
 296.356445312 166.666992188 l 1
 213.0234375 166.666992188 l 1
 213.0234375 250 l 1
 296.356445312 250 l 1
 296.356445312 333.333007812 l 1
 213.0234375 333.333007812 l 1
 213.0234375 416.666992188 l 1
213.0234375 83.3330078125 m 1
 379.689453125 83.3330078125 l 1
 296.356445312 0 l 1
 213.0234375 0 l 1
 213.0234375 83.3330078125 l 1
EndSplineSet
EndChar

StartChar: g
Encoding: 103 103 14
Width: 416
VWidth: 0
Flags: HWO
LayerCount: 2
Fore
SplineSet
175.395507812 -166.666992188 m 1
 175.395507812 -250 l 1
 92.0615234375 -250 l 1
 8.728515625 -166.666992188 l 1
 8.728515625 -166.666992188 l 1
 92.0615234375 -166.666992188 l 1
 92.0615234375 -166.666992188 l 1
 175.395507812 -166.666992188 l 1
258.728515625 -250 m 1
 258.728515625 333.333007812 l 1
 342.061523438 416.666992188 l 1
 342.061523438 -166.666992188 l 1
 258.728515625 -250 l 1
175.395507812 333.333007812 m 1
 92.0615234375 333.333007812 l 1
 92.0615234375 83.3330078125 l 1
 175.395507812 83.3330078125 l 1
 175.395507812 0 l 1
 92.0615234375 0 l 1
 8.728515625 83.3330078125 l 1
 8.728515625 333.333007812 l 1
 92.0615234375 416.666992188 l 1
 175.395507812 333.333007812 l 1
EndSplineSet
EndChar

StartChar: h
Encoding: 104 104 15
Width: 460
VWidth: 0
Flags: HW
LayerCount: 2
Fore
SplineSet
64 0 m 1
 64 666.666992188 l 1
 147.333007812 583.333007812 l 1
 147.333007812 0 l 1
 64 0 l 1
230.666992188 416.666992188 m 1
 314 416.666992188 l 1
 397.333007812 333.333007812 l 1
 397.333007812 0 l 1
 314 0 l 1
 314 333.333007812 l 1
 230.666992188 333.333007812 l 1
 230.666992188 416.666992188 l 1
EndSplineSet
EndChar

StartChar: m
Encoding: 109 109 16
Width: 979
VWidth: 0
Flags: HW
LayerCount: 2
Fore
SplineSet
239.49609375 0 m 1
 239.49609375 416.666992188 l 2
 239.49609375 420 322.829101562 416.666992188 322.829101562 416.666992188 c 1
 406.163085938 416.666992188 l 1
 406.163085938 333.333007812 l 1
 322.829101562 333.333007812 l 1
 322.829101562 83.3330078125 l 1
 239.49609375 0 l 1
489.49609375 0 m 1
 489.49609375 331.2421875 l 1
 489.49609375 416.666992188 l 1
 572.829101562 416.666992188 l 1
 656.163085938 333.333007812 l 1
 572.829101562 333.333007812 l 1
 572.829101562 83.3330078125 l 1
 489.49609375 0 l 1
739.49609375 416.666992188 m 1
 822.829101562 333.333007812 l 1
 822.829101562 83.3330078125 l 1
 906.163085938 83.3330078125 l 1
 822.829101562 0 l 1
 739.49609375 83.3330078125 l 1
 739.49609375 333.333007812 l 1
 739.49609375 333.333007812 l 1
 739.49609375 416.666992188 l 1
 739.49609375 416.666992188 l 1
EndSplineSet
EndChar

StartChar: n
Encoding: 110 110 17
Width: 669
VWidth: 0
Flags: HW
LayerCount: 2
Fore
SplineSet
182.43359375 0 m 1
 182.43359375 416.666992188 l 1
 349.100585938 416.666992188 l 1
 349.100585938 333.333007812 l 1
 265.766601562 333.333007812 l 1
 265.766601562 83.3330078125 l 1
 182.43359375 0 l 1
432.43359375 416.666992188 m 1
 515.766601562 333.333007812 l 1
 515.766601562 83.3330078125 l 1
 599.100585938 83.3330078125 l 1
 515.766601562 0 l 1
 432.43359375 83.3330078125 l 1
 432.43359375 416.666992188 l 1
EndSplineSet
EndChar

StartChar: q
Encoding: 113 113 18
Width: 500
VWidth: 0
Flags: HW
LayerCount: 2
Fore
SplineSet
302 -250 m 1
 302 333.333007812 l 1
 385.333007812 416.666992188 l 1
 385.333007812 -166.666992188 l 1
 302 -250 l 1
218.666992188 333.333007812 m 1
 135.333007812 333.333007812 l 1
 135.333007812 83.3330078125 l 1
 218.666992188 83.3330078125 l 1
 218.666992188 0 l 1
 135.333007812 0 l 1
 52 83.3330078125 l 1
 52 416.666992188 l 1
 135.333007812 416.666992188 l 1
 218.666992188 333.333007812 l 1
EndSplineSet
EndChar

StartChar: s
Encoding: 115 115 19
Width: 515
VWidth: 0
Flags: HW
LayerCount: 2
Fore
SplineSet
72.689453125 83.3330078125 m 1
 156.022460938 83.3330078125 l 1
 156.022460938 0 l 1
 72.689453125 0 l 1
 72.689453125 83.3330078125 l 1
239.356445312 0 m 1
 239.356445312 83.3330078125 l 1
 322.689453125 83.3330078125 l 1
 322.689453125 166.666992188 l 1
 239.356445312 166.666992188 l 1
 239.356445312 250 l 1
 322.689453125 250 l 1
 406.022460938 166.666992188 l 1
 406.022460938 83.3330078125 l 1
 322.689453125 0 l 1
 239.356445312 0 l 1
156.022460938 166.666992188 m 1
 72.689453125 250 l 1
 72.689453125 333.333007812 l 1
 156.022460938 416.666992188 l 1
 156.022460938 166.666992188 l 1
239.356445312 416.666992188 m 1
 406.022460938 416.666992188 l 1
 322.689453125 333.333007812 l 1
 239.356445312 333.333007812 l 1
 239.356445312 416.666992188 l 1
EndSplineSet
EndChar

StartChar: u
Encoding: 117 117 21
Width: 637
VWidth: 0
Flags: HW
LayerCount: 2
Fore
SplineSet
138.97265625 416.666992188 m 1
 222.305664062 333.333007812 l 1
 222.305664062 83.3330078125 l 1
 305.639648438 83.3330078125 l 1
 305.639648438 0 l 1
 138.97265625 0 l 1
 138.97265625 416.666992188 l 1
555.639648438 83.3330078125 m 1
 472.305664062 0 l 1
 388.97265625 83.3330078125 l 1
 388.97265625 416.666992188 l 1
 472.305664062 333.333007812 l 1
 472.305664062 83.3330078125 l 1
 555.639648438 83.3330078125 l 1
EndSplineSet
EndChar

StartChar: v
Encoding: 118 118 22
Width: 13
VWidth: 0
Flags: HW
LayerCount: 2
Fore
SplineSet
-405.37890625 416.666992188 m 1
 -322.045898438 333.333007812 l 1
 -322.045898438 83.3330078125 l 1
 -238.711914062 83.3330078125 l 1
 -238.711914062 0 l 1
 -322.045898438 0 l 1
 -405.37890625 83.3330078125 l 1
 -405.37890625 416.666992188 l 1
-72.0458984375 416.666992188 m 1
 -72.0458984375 83.3330078125 l 1
 -155.37890625 0 l 1
 -155.37890625 333.333007812 l 1
 -72.0458984375 416.666992188 l 1
EndSplineSet
EndChar

StartChar: z
Encoding: 122 122 23
Width: -10
VWidth: 0
Flags: HW
LayerCount: 2
Fore
SplineSet
-509.93359375 83.3330078125 m 1
 -509.93359375 166.666992188 l 1
 -426.600585938 250 l 1
 -343.266601562 250 l 1
 -343.266601562 166.666992188 l 1
 -426.600585938 166.666992188 l 1
 -426.600585938 83.3330078125 l 1
 -343.266601562 83.3330078125 l 1
 -343.266601562 0 l 1
 -426.600585938 0 l 1
 -509.93359375 83.3330078125 l 1
-259.93359375 83.3330078125 m 1
 -176.600585938 83.3330078125 l 1
 -259.93359375 0 l 1
 -259.93359375 83.3330078125 l 1
-509.93359375 416.666992188 m 1
 -509.93359375 416.666992188 -343.266601562 416.666992188 -343.266601562 416.666992188 c 1
 -343.266601562 333.333007812 l 1
 -426.600585938 333.333007812 l 1
 -509.93359375 416.666992188 l 1
-259.93359375 166.666992188 m 1
 -259.93359375 416.666992188 l 1
 -176.600585938 333.333007812 l 1
 -176.600585938 250 l 1
 -259.93359375 166.666992188 l 1
EndSplineSet
EndChar

StartChar: L
Encoding: 76 76 24
Width: 686
VWidth: 0
Flags: HW
LayerCount: 2
Fore
SplineSet
169.333007812 750 m 1
 169.333007812 250 l 1
 86 166.666992188 l 1
 86 666.666992188 l 1
 169.333007812 750 l 1
86 83.3330078125 m 1
 502.666992188 83.3330078125 l 1
 586 0 l 1
 86 0 l 1
 86 83.3330078125 l 1
EndSplineSet
EndChar

StartChar: x
Encoding: 120 120 25
Width: 1079
VWidth: 0
Flags: H
LayerCount: 2
Fore
SplineSet
79.4697265625 0 m 1
 79.4697265625 83.3330078125 l 1
 162.802734375 166.666992188 l 1
 162.802734375 0 l 1
 79.4697265625 0 l 1
162.802734375 250 m 1
 79.4697265625 333.333007812 l 1
 79.4697265625 416.666992188 l 1
 162.802734375 416.666992188 l 1
 162.802734375 250 l 1
246.13671875 250 m 1
 246.13671875 333.333007812 l 1
 329.469726562 333.333007812 l 1
 329.469726562 416.666992188 l 1
 412.802734375 416.666992188 l 1
 412.802734375 333.333007812 l 1
 329.469726562 250 l 1
 246.13671875 250 l 1
246.13671875 166.666992188 m 1
 329.469726562 166.666992188 l 1
 412.802734375 83.3330078125 l 1
 412.802734375 0 l 1
 329.469726562 0 l 1
 329.469726562 83.3330078125 l 1
 246.13671875 83.3330078125 l 1
 246.13671875 166.666992188 l 1
EndSplineSet
EndChar
